<svg xmlns="http://www.w3.org/2000/svg" height="691.9" width="571.3">
  <path fill="#231f20" d="M40 682c-21 0-28.5-12.7-28.5-35.8 0-22.6 7.4-36.6 28.5-36.6 6.4 0 11 .7 13.7 1.8.4 0 .5.3.5.8l-.5 8c0 .3-.3.7-1 .4-2.4-.9-7-1.6-11.3-1.6-13 0-16.5 7-16.5 27.3 0 19.2 3.9 25.8 16.5 25.8 3.6 0 8.2-.6 11-1.2.4-.2 1-.3 1.3.4l.8 7.6c0 .7-.1.9-.5 1.2-3.5 1-8.8 1.7-14 1.7M84 669c2 2.2 4.8 3.1 11.9 3.1 7.2 0 10-1 12-3.1 3.3-3.5 5-13.2 5-23.9 0-10.8-1.7-19.2-5-22.7-2-2.3-4.8-3.2-11.8-3.2-7.3 0-10 1-12.2 3.2-3.3 3.5-4.9 12-4.9 22.7 0 10.6 1.6 20.3 5 23.8m33.8 5.9c-4.6 5-11.5 7-22 7-10.7 0-17-2-21.6-7a47.8 47.8 0 01-8.4-29.7c0-13.2 3.5-23.4 8.4-28.8 4.6-5 11.5-6.7 21.9-6.7 10.7 0 17.1 1.8 21.7 6.7A45.7 45.7 0 01126 645c0 13-3.6 24.2-8.2 29.7m69-52.9c0-.6-.4-1.1-1.1-1.5-1.9-.7-6.3-1.2-10.1-1.2-14.8 0-19.5 3.9-19.5 25.7.1 21.4 2.5 27.3 20 27.3 2.9 0 7.1 0 9.5-.8 1.1-.5 1.1-1 1.1-1.5zm-44 23c0-24.7 9.6-35.3 32.5-35.3 4.7 0 8.8.9 10.6.9.6 0 .8-.5.8-1.2v-23.2c0-.8.5-1.2 1.4-1.2h10c.9 0 1.4.4 1.4 1.2v91.5c0 .7-.5 1.2-1.4 1.4a89.7 89.7 0 01-22.2 2.8c-26.5 0-33.1-10.3-33.1-37m90-4.1h29.7c1.2 0 1.6-.2 1.6-4.6 0-11.7-3.5-17-15.2-17-13.6 0-16.9 8.7-16.9 20.7 0 .5.1.9.8.9m18.8 41c-26.5 0-32.8-16.2-32.8-36 0-20.6 7.7-36 30.1-36 22 0 27.1 12.8 27.1 30v3.7c0 5.3-1.2 6.4-3.5 6.4h-39.7c-.7 0-.9.3-.9 1 0 17.2 8.3 21.4 22.4 21.4 6.3 0 13.2-1.7 17.3-3.5h.7c.6 0 1 .3 1.2.7l.6 7v.3c0 .5-.2 1.2-.8 1.4a57.9 57.9 0 01-21.6 3.7m122-1.4h-17.4c-.6 0-.9-.2-1.1-.9a2248 2248 0 01-13-56.9c-.2-.7-.4-.9-1.4-.9-1.1 0-1.4.2-1.6 1-3.7 17-11.1 45.7-14.3 56.8-.3.7-.7 1-1.6 1h-17c-.4 0-.8-.5-1-1.1a1352.1 1352.1 0 01-17.7-67.3c0-1 .2-1.2.9-1.2h11.8c.7 0 .8.5.9 1.2a1216.4 1216.4 0 0012.9 57.1c0 .8.6 1 1.5 1 1.2 0 1.6-.2 1.7-1a1980.7 1980.7 0 0012.9-57.1c.2-1 .5-1.2 1.1-1.2h18.5c.6 0 1.1.5 1.1 1.2 3.4 16.4 10 44.6 12.9 57.1.3.8.9 1 1.7 1 1.1 0 1.4-.2 1.6-1a1082 1082 0 0014-57.1c.2-1 .6-1.2 1.2-1.2h11c.6 0 1 .6 1 1.3a1330 1330 0 01-19 67.3c-.3.7-.6 1-1.5 1m70.5-30.9c0-.6-.4-.9-1-.9h-12c-11.3 0-14.2 2.4-14.2 12.9 0 10.2 2.3 11.4 15.6 11.4a59.8 59.8 0 0010.2-.7c1.3-.2 1.3-.5 1.3-.9zm-31.3-29c-1 .2-1.9.2-2-.5l-1-6.5c-.2-.7 0-1.5.8-1.8a78.3 78.3 0 0120.7-2.3c16.6 0 25.2 5.8 25.2 21.1v47c0 .8-.4 1.3-1.8 2a84.4 84.4 0 01-21.1 2.1c-23.2 0-29.9-4.6-29.9-18.7 0-12.6 3-19.3 22.8-21.6l16.9-2c.4-.2.8-.2.8-.9V632c0-10-4.4-12.5-15.8-12.5-4.8 0-11.3.6-15.6 1.1m66.9-8.2a100.2 100.2 0 0133.4-2.2c.7.1.9.5.9 1.2l-.6 8.1c0 .6-.4.8-1 .7-3.4-.7-7-1-11.3-1-2.4 0-7 .3-9.1 1.4-.8.4-.9 1-.9 1.6v57c0 1-.6 1.5-1.6 1.2h-9.9c-.9 0-1.3-.4-1.3-1.1v-65.7c0-.7.5-1.2 1.3-1.2m40.5 68c-.4 0-.7-.2-.7-.8l.6-8.3c0-.4.4-.7 1-.6a81 81 0 0014.5 1.4c11.5 0 13.4-1.2 13.4-9.4 0-4.8-2.8-7.4-13.7-15-11-7.7-15.2-11-15.2-19.3 0-13.5 6.1-18.8 23.7-18.8 6.3 0 11.6.4 15.3 1 .4 0 .7.3.7 1l-.5 8.2c0 .5-.5.7-1.1.6-3.5-.6-8.5-1.2-13-1.2-9.8 0-13.2.6-13.2 8 0 5.5 3 7.5 14 14.5 11.5 7.4 15.2 12.5 15.2 20.3 0 15.4-7 19.8-23.5 19.8a109 109 0 01-17.5-1.2"/>
  <path fill="#b1361e" d="M275.6 471.2a17.8 17.8 0 0125.7 6.3 20.6 20.6 0 0128.4-1.2 22.5 22.5 0 0130.8-14.6 25 25 0 0124.2-24.5 30.4 30.4 0 0113.8-40.3 25.3 25.3 0 01-1.6-32.8 23.3 23.3 0 01-10.7-28.8 21 21 0 01-18.5-24.6h-3.2c-8 0-14.6-5-15.8-12.6v-.4a15.4 15.4 0 01-23.7-9 9.5 9.5 0 01-8.7 0 29.6 29.6 0 01-8 13.7 9.5 9.5 0 014 13.9 15.4 15.4 0 017.5 25.3 17 17 0 011.2 30c1.6 2 3.2 3.6 4 6.3a21 21 0 01-14.3 30 23.3 23.3 0 01-22.5 33.7 25.3 25.3 0 01-14.6 24.9l2 5.1"/>
  <path fill="#b1361e" d="M510.7 341.6a22.8 22.8 0 01-13.8 10.3 21 21 0 01-18.6 33.1v-.7a17.8 17.8 0 01-24 20.5 14.6 14.6 0 01-12 12.7 23.7 23.7 0 010 10.2 30.4 30.4 0 01-32.8 26.5 25.3 25.3 0 01-35.5 30.4 22.5 22.5 0 01-38.4 13.5 21 21 0 01-38.3 2 17.8 17.8 0 01-29.2-11.1l-6.8 1.2a14.6 14.6 0 01-14.2-13.5 26.5 26.5 0 01-14.2 11.9 30.1 30.1 0 01-39.1-15.8 25.3 25.3 0 01-43.5-16.6 22.5 22.5 0 01-30-27.7 21 21 0 01-20.2-32.8 17.8 17.8 0 01-4-31.2 14.6 14.6 0 01-4.3-19h.4a23.7 23.7 0 01-11-5.1 30.8 30.8 0 01-6.4-42.3 25.3 25.3 0 01-7.9-45.8 22.5 22.5 0 019.1-40 21 21 0 0118.2-33.5v.3a17.8 17.8 0 0124.5-19.7 14.6 14.6 0 0111.8-13l.8 1.1a30.4 30.4 0 0131.6-38.3l-1.1-8.7a25.3 25.3 0 0136.7-21.3 22.5 22.5 0 0138.7-13.5 21 21 0 0138.4-2 17.8 17.8 0 0128.8 11.9 14.6 14.6 0 0121.4 11.5A29 29 0 01340 74.8c15.8-6 32.4 1.6 38.7 16.2a25.3 25.3 0 0143.9 16.6 22.5 22.5 0 0130 27.7 21 21 0 0119.8 32.8c4.3 1.6 7.9 4.7 9.9 8.3a19 19 0 01-5.6 22.9 14.6 14.6 0 014.4 19 30.4 30.4 0 0117 47.4 19.8 19.8 0 017.9 3.6 25.3 25.3 0 010 42.2 22.5 22.5 0 015.1 30M533.2 10h-499A24.1 24.1 0 0010 34.1V527a24.4 24.4 0 0024.1 25h499.1c13.9 0 25-11.1 25-25V34.1c0-13-11.1-24.1-25-24.1"/>
  <path fill="#b1361e" d="M271.2 86.3a20.6 20.6 0 01-28.4 1.2 22.5 22.5 0 01-30.5 14.6 25.3 25.3 0 01-24 24.5 30.4 30.4 0 01-13.9 40.3 25.3 25.3 0 011.6 32.8 23.3 23.3 0 0110.7 28.8 21 21 0 0118.1 24.5h3.2c7.9 0 15 5.2 15.8 12.7a15.4 15.4 0 0123.7 9.5 9.5 9.5 0 018.7-.8 31.6 31.6 0 016.7-14.2l-2.7-3.6c-1.6-2.8-.8-6.3 0-9a15.4 15.4 0 01-7.2-25.4 17 17 0 01-.7-30.4 21 21 0 019.4-35.6 23.3 23.3 0 0123-34 25.3 25.3 0 0114.6-24.9l-2-5.1a15.8 15.8 0 01-10.7 4c-6.7 0-11.8-4.4-15.4-10m183 185.8a30.4 30.4 0 01-11.8-26.5 25.3 25.3 0 01-28.9-15.8 23.3 23.3 0 01-29.2-5.9 21 21 0 01-30.9 3.2L352 230a17 17 0 01-19.4 7.1c0 3.2-1.2 6.4-2.8 8.7a15 15 0 01-17.4 6.4 9.5 9.5 0 01-3.1 7 37 37 0 017.5 12.7l4-1.2c3.5 0 6.6 2 7.8 4.8a15.4 15.4 0 0126.1 5.1 15.8 15.8 0 0110.7-3.1 17 17 0 0116.2 17 21 21 0 0127.7 26.4 23.3 23.3 0 0118.5 35.6 25.3 25.3 0 0112.7 31.6h2.7A17.8 17.8 0 01461 370a20.6 20.6 0 0114.3-24.9 22.5 22.5 0 013.1-34.4 25.3 25.3 0 01-7.9-33.1 27.7 27.7 0 01-15.8-5.6"/>
  <path fill="#b1361e" d="M455.8 202.9l2-2a17.8 17.8 0 01-7.1-25.3 21 21 0 01-14.3-25 22.5 22.5 0 01-28-19.7 25.6 25.6 0 01-32.8-9.8 30.4 30.4 0 01-42 7.5 25.3 25.3 0 01-28 17 23.3 23.3 0 01-19.7 22.9 21 21 0 01-13 28l1.5 2.8c4 7.1 2.4 15.8-3.6 20.6h-.4a15.4 15.4 0 013.6 24.5 9.5 9.5 0 014 5.9 30.4 30.4 0 0115.8 0 9.5 9.5 0 018.6-8 15.4 15.4 0 0118.6-19.7c-.8-3.5 0-7 2.4-10.3 5.5-7.9 15.4-10.6 23.3-5a21 21 0 0135.6-10.4 23.3 23.3 0 0140.7 2.8 25.3 25.3 0 0132.8 3.2M294.9 315.5c-.4-1.6-.7-3.6-.4-5.1a31.2 31.2 0 01-15.4 0c0 2 0 4.7-1.5 6.7a8.8 8.8 0 01-7.2 4.3 15.4 15.4 0 01-18.5 19.8 17 17 0 01-25.7 15.8c0 2.4-1.6 5.1-2.8 6.7a21 21 0 01-33.2 3.2 23.3 23.3 0 01-40.7-2.8 25.3 25.3 0 01-32.4-3.2 15.8 15.8 0 01-2.4 2 17 17 0 018 8 17.1 17.1 0 01-.5 17.3 21 21 0 0114.3 25 22.5 22.5 0 0127.6 19.7 25.6 25.6 0 0132.8 9.8 30 30 0 0142.3-7.5 25.3 25.3 0 0127.7-17 23.3 23.3 0 0120.1-22.9 21 21 0 0112.7-28l-1.6-2.8c-3.6-7.1-2-15.8 4-20.6-2.8-1.5-5.6-3.5-6.4-6.3a15.8 15.8 0 013.2-18.2c-1.6-.7-2.8-2.3-4-4"/>
  <path fill="#b1361e" d="M257.8 291.4a9.5 9.5 0 01-13.8-3.2 15.4 15.4 0 01-25.7-5.1 17 17 0 01-10.7 3.1 17 17 0 01-16.2-17 21 21 0 01-26.9-25.6 23.3 23.3 0 01-19.7-36.4 25.3 25.3 0 01-12.7-31.6 15.8 15.8 0 01-2.4 0 17.8 17.8 0 01-18.1 18.2 21 21 0 01-14.3 24.9 22.5 22.5 0 01-3.1 34.3 25.3 25.3 0 017.9 33.2c5.5 0 11 2 15.8 5.6a30.4 30.4 0 0112.2 26.5A25.3 25.3 0 01159 334a23.3 23.3 0 0129.6 5.9 21 21 0 0130.5-3.2l1.5-3.1a17 17 0 0119.8-7.1c0-3.2.8-6.4 2.4-8.7 4-6 10.6-8.7 17.4-6.4a9.5 9.5 0 015.5-8.7 32.4 32.4 0 01-8-11.8"/>
</svg>
